<svg width="56" height="85" viewBox="0 0 56 85" fill="none" xmlns="http://www.w3.org/2000/svg">
<path d="M21.755 34.418C21.2392 34.418 20.8211 35.0566 20.8211 35.8442V79.0106C20.8211 79.7982 21.2392 80.4368 21.755 80.4368C22.2708 80.4368 22.689 79.7982 22.689 79.0106V35.8442C22.689 35.0564 22.2708 34.418 21.755 34.418Z" fill="#FFBA08"/>
<path d="M25.9871 34.418C25.4713 34.418 25.0531 35.0566 25.0531 35.8442V79.0106C25.0531 79.7982 25.4713 80.4368 25.9871 80.4368C26.5028 80.4368 26.921 79.7982 26.921 79.0106V35.8442C26.921 35.0564 26.5028 34.418 25.9871 34.418Z" fill="#FFBA08"/>
<path d="M29.9163 34.418C29.4005 34.418 28.9823 35.0566 28.9823 35.8442V79.0106C28.9823 79.7982 29.4005 80.4368 29.9163 80.4368C30.4321 80.4368 30.8502 79.7982 30.8502 79.0106V35.8442C30.8502 35.0564 30.4321 34.418 29.9163 34.418Z" fill="#FFBA08"/>
<path d="M34.2451 34.418C33.7293 34.418 33.3111 35.0566 33.3111 35.8442V79.0106C33.3111 79.7982 33.7293 80.4368 34.2451 80.4368C34.7609 80.4368 35.179 79.7982 35.179 79.0106V35.8442C35.179 35.0564 34.7607 34.418 34.2451 34.418Z" fill="#FFBA08"/>
<path d="M45.3709 82.1476H39.6434V31.4706C39.6434 30.6829 39.2253 30.0444 38.7095 30.0444H37.6448V17.0186C37.6448 16.2309 37.2266 15.5924 36.7108 15.5924H35.1081V5.60909C35.1081 4.82145 34.69 4.1829 34.1742 4.1829H28.934C28.934 4.1829 28.5159 4.1829 28.0001 4.1829C27.0661 4.1829 27.0661 6.93962 27.0661 4.1829H21.826C21.3102 4.1829 20.892 4.82145 20.892 5.60909V15.5924H19.2893C18.7735 15.5924 18.3554 16.2309 18.3554 17.0186V30.0444H17.2906C16.7748 30.0444 16.3567 30.6829 16.3567 31.4706V82.1476H10.6293C10.1135 82.1476 9.6953 82.7862 9.6953 83.5738C9.6953 84.3614 10.1135 85 10.6293 85H45.3709C45.8867 85 46.3048 84.3614 46.3048 83.5738C46.3048 82.7862 45.8865 82.1476 45.3709 82.1476ZM22.7599 7.03527H33.2402V15.5924H32.3655V10.394C32.3655 9.6064 31.9474 8.96785 31.4316 8.96785C30.9158 8.96785 30.4976 9.6064 30.4976 10.394V15.5924H28.934V10.394C28.934 9.6064 28.5159 8.96785 28.0001 8.96785C27.4843 8.96785 27.0661 9.6064 27.0661 10.394V15.5924H25.5027V10.394C25.5027 9.6064 25.0845 8.96785 24.5687 8.96785C24.0529 8.96785 23.6347 9.6064 23.6347 10.394V15.5924H22.76L22.7599 7.03527ZM20.2233 18.4447H35.7768V30.0444H34.0811V20.6949C34.0811 19.9072 33.663 19.2687 33.1472 19.2687C32.6314 19.2687 32.2132 19.9072 32.2132 20.6949V30.0444H30.6497V20.6949C30.6497 19.9072 30.2315 19.2687 29.7157 19.2687C29.1999 19.2687 28.7817 19.9072 28.7817 20.6949V30.0444H27.2183V20.6949C27.2183 19.9072 26.8001 19.2687 26.2843 19.2687C25.7685 19.2687 25.3504 19.9072 25.3504 20.6949V30.0444H23.7869V20.6949C23.7869 19.9072 23.3687 19.2687 22.8529 19.2687C22.3371 19.2687 21.919 19.9072 21.919 20.6949V30.0444H20.2233V18.4447ZM18.2246 82.1476V32.8967H37.7755V82.1476H18.2246Z" fill="#FFBA08"/>
</svg>
